<svg width="289" height="289" fill="none" xmlns="http://www.w3.org/2000/svg"><path fill="#fff" fill-opacity=".05" d="M0 0h289v289H0z"/><path opacity=".6" fill-rule="evenodd" clip-rule="evenodd" d="M59 144.01v19.959h11.365l.189-8.017.188-8.016 6.186-.188 6.186-.187.188 8.04.189 8.041h11.406v-39.264l-5.87-.189-5.872-.189v14.448H70.407v-14.397H59v19.959zm128.604-19.522c-.246.239-.448 2.849-.448 5.8v5.364l-3.132-1.547c-4.909-2.424-10.672-1.792-14.661 1.607-4.862 4.141-6.241 14.632-2.868 21.81 1.353 2.879 2.383 4.056 4.657 5.325 5.289 2.951 10.87 2.863 14.91-.237 1.412-1.083 1.765-1.155 1.765-.364 0 1.47.989 1.827 5.228 1.887l3.831.054.177-20.068.178-20.068h-4.595c-2.527 0-4.796.196-5.042.437zm-80.198 9.005c-3.484 1.11-5.97 3.201-7.228 6.079-.505 1.158-.92 2.262-.92 2.454 0 .192 2.228.348 4.951.348 3.581 0 5.181-.272 5.785-.982 1.106-1.299 5.648-1.269 6.998.047.58.566 1.054 1.563 1.054 2.216 0 1.054-.774 1.216-6.88 1.437-7.562.272-10.762 1.497-12.582 4.813-1.255 2.287-1.15 7.39.205 9.91 2.655 4.945 11.353 6.783 16.923 3.578 2.265-1.304 2.634-1.356 3.154-.45.443.772 1.699 1.026 5.085 1.026h4.496l-.185-10.307c-.102-5.668-.341-11.255-.531-12.414-.412-2.514-3.034-5.729-5.818-7.134-2.832-1.428-10.893-1.774-14.507-.621zm38.821-.503c-.554.225-1.808.956-2.787 1.625-2.257 1.539-2.581 1.524-2.581-.124 0-1.235-.349-1.324-4.529-1.145l-4.529.194-.18 15.16-.18 15.16 4.768.218c2.622.12 4.892.095 5.045-.055.151-.15.276-4.624.276-9.943 0-9.111.087-9.764 1.51-11.294.83-.893 2.482-1.814 3.671-2.047 1.759-.345 2.479-.116 3.858 1.23 1.669 1.627 1.697 1.818 1.697 11.827v10.173h10.064v-11.313c0-10.442-.116-11.535-1.509-14.195-2.141-4.087-4.211-5.339-9.314-5.633-2.35-.136-4.727-.062-5.28.162zm61.826.506c-5.266 1.672-8.53 6.03-7.723 10.31.885 4.69 3.473 6.462 11.838 8.104 5.996 1.178 7.866 1.935 7.866 3.187 0 .535-.583 1.278-1.297 1.651-1.976 1.031-7.125.837-8.096-.305-.614-.722-2.247-.981-6.167-.981-5.21 0-5.32.033-4.894 1.472.805 2.72 2.721 4.733 6.049 6.359 4.692 2.29 13.408 2.274 18.183-.036 5.509-2.664 7.469-7.041 5.358-11.97-1.303-3.039-4.802-4.901-11.451-6.091-3.14-.563-6.244-1.41-6.897-1.882-1.127-.816-1.129-.918-.023-2.013 1.49-1.474 5.424-1.496 7.074-.04 1.482 1.309 10.884 1.649 10.884.394 0-2.081-2.467-5.375-5.191-6.932-3.683-2.105-10.943-2.679-15.513-1.227zm-24.619 7.841c2.98 1.214 3.722 2.728 3.722 7.588 0 3.57-.219 4.234-1.961 5.933-1.338 1.305-2.633 1.912-4.077 1.912s-2.739-.607-4.078-1.912c-1.756-1.714-1.961-2.348-1.961-6.072 0-4.471 1.048-6.724 3.594-7.726 1.988-.783 2.19-.771 4.761.277zm-65.388 11.72c0 3.172-5.568 6.014-8.641 4.41-1.789-.933-1.948-4.26-.25-5.225.647-.367 2.911-.676 5.033-.687 3.596-.018 3.858.084 3.858 1.502z" fill="#fff"/></svg>