<svg width="101" height="101" fill="none" xmlns="http://www.w3.org/2000/svg"><path d="M50.677 100.72a.496.496 0 01-.404-.202L15.821 56.291a.507.507 0 01-.034-.584L50.24 1.358a.482.482 0 01.516-.224c.202.033.37.19.415.393l13.03 60.285c.022.09.01.18-.012.27l-13.03 38.29a.504.504 0 01-.403.337c-.023.011-.045.011-.079.011zM16.854 55.954L50.498 99.15l12.68-37.258L50.443 2.963 16.854 55.954z" fill="#8A8A8A"/><path d="M50.677 100.72a.508.508 0 01-.28-.079.508.508 0 01-.146-.707L83.86 48.75 50.262 1.942a.518.518 0 01.112-.718.518.518 0 01.719.112l33.8 47.088a.526.526 0 01.012.584l-33.801 51.487a.513.513 0 01-.427.225z" fill="#8A8A8A"/><path d="M63.706 62.44h-.067l-47.481-5.936a.5.5 0 01-.438-.572c.034-.28.292-.494.572-.438l47.302 5.914L84.21 48.312a.512.512 0 01.707.157.522.522 0 01-.157.707L63.987 62.373a.788.788 0 01-.28.068z" fill="#8A8A8A"/><path d="M16.225 56.235a.24.24 0 01-.213-.124c-.079-.123-.045-.28.078-.347L37.694 42.24 50.442 1.56a.256.256 0 01.325-.17.26.26 0 01.168.326l-12.77 40.77c-.023.057-.057.113-.113.135l-21.681 13.58a.388.388 0 01-.146.033z" fill="#8A8A8A"/><path d="M50.677 100.473a.252.252 0 01-.247-.202L37.66 42.465a.215.215 0 01.067-.224.279.279 0 01.224-.079l46.584 6.318a.263.263 0 01.224.292c-.011.146-.157.224-.292.224l-46.213-6.273 12.693 57.447a.255.255 0 01-.191.303c-.045-.011-.056 0-.079 0z" fill="#8A8A8A"/></svg>