<svg width="101" height="101" fill="none" xmlns="http://www.w3.org/2000/svg"><path d="M50.812 98.456a.528.528 0 01-.37-.157L4.631 51.267a.508.508 0 010-.707l45.81-47.033a.515.515 0 01.729 0L96.98 50.56a.51.51 0 010 .707L51.17 98.299a.467.467 0 01-.358.157zM5.72 50.908L50.81 97.21l45.092-46.303-45.09-46.302L5.72 50.908z" fill="#8A8A8A"/><path d="M56.917 54.42L4.98 51.424a.514.514 0 01-.482-.539.5.5 0 01.538-.482l51.87 2.996 39.67-2.996c.303-.034.527.19.55.471a.514.514 0 01-.471.55L56.917 54.42z" fill="#8A8A8A"/><path d="M50.812 98.456h-.068a.508.508 0 01-.437-.572l6.06-43.969-6.06-49.972a.516.516 0 01.449-.573.516.516 0 01.572.45l6.06 50.028v.135l-6.06 44.036a.53.53 0 01-.516.437z" fill="#8A8A8A"/><path d="M50.812 98.198a.264.264 0 01-.258-.224L43.843 47.36v-.078l6.71-43.453c.023-.134.135-.235.27-.213a.257.257 0 01.236.258V97.94a.257.257 0 01-.236.258h-.011zm-6.453-50.87l6.195 46.74V7.198l-6.195 40.13z" fill="#8A8A8A"/><path d="M96.62 51.166H5.015a.267.267 0 01-.258-.247c0-.135.1-.258.235-.27l39.099-3.58 52.553 3.58c.135.012.247.124.236.259-.011.146-.123.258-.258.258zm-86.029-.516h78.522l-45.035-3.075-33.487 3.075z" fill="#8A8A8A"/><path d="M56.883 54.162a.19.19 0 01-.112-.033L44 47.552a.258.258 0 01-.112-.348c.067-.123.224-.18.348-.112l12.77 6.576c.124.068.18.214.113.348a.266.266 0 01-.236.146z" fill="#8A8A8A"/></svg>