<svg width="135" height="142" fill="none" xmlns="http://www.w3.org/2000/svg"><g opacity=".5" fill="#fff"><path d="M71.49 84.806a.678.678 0 01-.645-.474l-.09-.236a36.55 36.55 0 00-3.69-7.163c-.21-.332-.135-.773.165-.994a.665.665 0 01.945.173 36.914 36.914 0 013.225 5.949c.21.473.42.978.6 1.483.03.079.075.189.12.315.135.379-.06.79-.405.915a.972.972 0 01-.225.032zm-32.67 50.552C19.065 135.358 3 118.46 3 97.68 3 78.1 16.95 61.975 35.46 60.177h.045c.045 0 .09-.016.135-.016.375 0 .675.316.675.726 0 .378-.285.694-.63.71h-.09C17.79 63.317 4.35 78.827 4.35 97.68c0 19.991 15.45 36.242 34.455 36.242 11.22 0 21.78-5.79 28.23-15.462.03-.032.06-.079.09-.111.375-.394 1.17-.094 1.17.505a.789.789 0 01-.105.379.457.457 0 01-.075.11c-6.69 10.019-17.64 16.015-29.295 16.015z"/><path d="M96.42 135.358c-11.655 0-22.605-5.996-29.31-16.03-.015-.032-.045-.048-.06-.079a.732.732 0 01-.12-.411c0-.599.795-.899 1.155-.504.03.031.06.078.09.11 6.45 9.688 16.995 15.462 28.23 15.462 18.99 0 34.455-16.251 34.455-36.241 0-18.855-13.44-34.38-31.275-36.084h-.06a.699.699 0 01-.645-.473c-.12-.38.06-.79.42-.915a.984.984 0 01.375-.032c.045 0 .075 0 .105.016 18.51 1.814 32.46 17.923 32.46 37.503 0 20.78-16.065 37.678-35.82 37.678zM63.75 84.695a.708.708 0 01-.18-.031c-.345-.126-.57-.442-.45-.805.03-.094.075-.19.105-.284.165-.473.39-.994.615-1.53a37.97 37.97 0 013.225-5.933.657.657 0 01.945-.173c.3.22.375.678.165.994a37.111 37.111 0 00-3.72 7.21c-.105.316-.405.552-.705.552z"/><path d="M99.57 61.676a.583.583 0 01-.285-.064c-.345-.173-.48-.583-.33-.946l.015-.016a.438.438 0 01.075-.19c2.01-4.685 3.03-9.687 3.03-14.894 0-19.99-15.45-36.241-34.455-36.241S33.165 25.576 33.165 45.567c0 5.19 1.02 10.192 3.03 14.878l.045.095a.724.724 0 01-.12.852.647.647 0 01-.96 0 .7.7 0 01-.12-.174c-.015-.032-.075-.142-.09-.174-2.1-4.89-3.15-10.097-3.15-15.477 0-20.78 16.065-37.678 35.82-37.678s35.82 16.898 35.82 37.677c0 5.444-1.08 10.682-3.195 15.589 0 .016-.015.032-.015.047-.015.032-.015.063-.03.08-.135.236-.375.394-.63.394zm-63.285-1.042zm36.84 22.136a.64.64 0 01-.48-.205.73.73 0 010-1.01.664.664 0 01.975 0 .73.73 0 010 1.01.722.722 0 01-.495.206zm-5.505.442a31.03 31.03 0 01-3.225-.157c-.36-.032-.72-.064-1.095-.11a.704.704 0 01-.6-.79.696.696 0 01.75-.63c.345.046.69.078 1.05.11 2.04.205 4.2.205 6.225 0 .375-.032.705.252.75.646.03.395-.24.742-.615.79-1.05.094-2.145.141-3.24.141z"/><path d="M67.62 93.215a.711.711 0 01-.42-.142.734.734 0 01-.12-1.01 22.59 22.59 0 002.55-4.48 23.17 23.17 0 001.2-3.66c.045-.159.075-.316.105-.474.09-.442.18-.868.24-1.31a23.757 23.757 0 00.255-5.254 23.884 23.884 0 00-.375-3.013 22.74 22.74 0 00-3.975-9.167c-2.445-3.345-5.7-5.9-9.435-7.384a20.264 20.264 0 00-7.545-1.436c-5.13 0-10.11 1.94-13.995 5.49l-.06.064a.664.664 0 01-.975 0 .73.73 0 010-1.01c.03-.031.105-.095.15-.126 4.23-3.802 9.465-5.838 14.895-5.838 2.76 0 5.46.52 8.025 1.53 3.975 1.578 7.44 4.292 10.035 7.858a24.1 24.1 0 013.78 7.842c.18.63.33 1.262.45 1.909a26.96 26.96 0 01.405 3.203c.03.52.045 1.057.045 1.593 0 1.357-.105 2.698-.315 3.976-.06.458-.165.93-.255 1.388-.03.174-.075.348-.12.521a24.438 24.438 0 01-1.275 3.882 23.83 23.83 0 01-2.715 4.764c-.15.174-.345.284-.555.284z"/><path d="M67.62 119.58c-.375 0-.69-.315-.69-.726V92.726a23.546 23.546 0 01-2.595-4.638 24.26 24.26 0 01-1.26-3.834c-.03-.08-.06-.221-.09-.363-.12-.474-.225-1.01-.3-1.547a24.296 24.296 0 01-.315-3.96c0-.536.015-1.073.045-1.593.075-1.12.21-2.193.405-3.203.135-.647.27-1.294.45-1.925a24.1 24.1 0 013.78-7.842c2.565-3.518 5.985-6.216 9.9-7.81a21.622 21.622 0 018.16-1.577c5.43 0 10.695 2.05 14.82 5.774a.72.72 0 01.21.221c.255.3.225.742-.06 1.01a.648.648 0 01-.96-.063c-3.945-3.566-8.895-5.49-14.01-5.49-2.64 0-5.22.504-7.68 1.482-3.675 1.483-6.9 4.024-9.3 7.337a22.74 22.74 0 00-3.975 9.167 26.49 26.49 0 00-.39 3.013 23.557 23.557 0 00.54 6.706c.015.11.03.19.06.268a23.014 23.014 0 001.2 3.66 22.4 22.4 0 002.565 4.545c.09.126.135.284.135.441v26.365c.03.379-.27.71-.645.71z"/><path d="M67.635 119.58c-.375 0-.69-.315-.69-.726 0-.331.21-.615.495-.694 7.32-2.509 12.81-8.978 14.34-16.898.285-1.451.435-2.966.435-4.497 0-2.571-.405-5.08-1.215-7.494a22.548 22.548 0 00-4.365-7.668 20.43 20.43 0 00-1.8-1.846.732.732 0 01-.06-1.01c.255-.3.69-.331.96-.063.675.615 1.32 1.278 1.905 1.957a23.79 23.79 0 014.635 8.157 25.075 25.075 0 011.29 7.967c0 1.626-.15 3.235-.465 4.797-1.62 8.394-7.44 15.273-15.195 17.955a.496.496 0 01-.27.063zm-.015-44.178c-.075 0-.135-.016-.21-.031-.54-.19-1.08-.347-1.635-.49a21.16 21.16 0 00-2.355-.441 21.23 21.23 0 00-6.09.126c-.36.079-.72-.19-.78-.584-.06-.394.18-.757.555-.82 2.07-.379 4.335-.426 6.495-.142.87.11 1.71.268 2.505.473.585.142 1.155.316 1.725.505.36.126.555.52.435.9a.675.675 0 01-.645.504z"/><path d="M67.635 119.58a.496.496 0 01-.27-.063c-7.77-2.667-13.59-9.546-15.225-17.955-.3-1.562-.45-3.171-.45-4.797 0-2.713.435-5.396 1.275-7.936a24.244 24.244 0 014.65-8.173c.585-.678 1.2-1.294 1.8-1.877a23.715 23.715 0 013.345-2.572.651.651 0 01.93.252c.195.347.09.79-.24.979a20.995 20.995 0 00-3.15 2.414 26.332 26.332 0 00-1.71 1.767 22.818 22.818 0 00-4.365 7.683 23.665 23.665 0 00-.765 11.96c1.53 7.92 7.035 14.405 14.355 16.898.12.032.21.111.3.205.12.126.195.3.195.489 0 .411-.3.726-.675.726zm-.015-44.178a.675.675 0 01-.645-.505c-.12-.378.09-.788.45-.899.57-.19 1.14-.363 1.725-.505A21.907 21.907 0 0178 73.13c.375.063.63.426.57.82-.06.395-.42.663-.78.6a21.002 21.002 0 00-5.97-.11 19.537 19.537 0 00-3.975.931c-.09.015-.15.031-.225.031z"/><path d="M57.06 90.076c-1.215 0-2.4-.095-3.555-.284-4.2-.695-8.13-2.62-11.37-5.57-4.98-4.56-7.845-11.155-7.845-18.081 0-1.815.195-3.613.57-5.365 0-.016 0-.031.015-.047a.643.643 0 01.18-.331l.33.347h.18l.66.189c0 .016-.015.047-.015.063 0 .032 0 .063-.015.095a23.52 23.52 0 00-.54 5.049c0 6.516 2.685 12.717 7.365 16.992 3.045 2.777 6.735 4.576 10.68 5.239 2.745.457 5.73.331 8.475-.379.84-.22 1.68-.49 2.55-.836.345-.142.75.047.885.41s-.045.789-.39.93c-.93.38-1.815.663-2.715.9a22.4 22.4 0 01-5.445.679zm20.985 0c-1.8 0-3.57-.221-5.295-.663-.9-.22-1.815-.52-2.73-.868a.73.73 0 01-.405-.93c.135-.38.525-.569.885-.427.855.332 1.725.616 2.565.82 2.775.71 5.79.805 8.445.332 3.945-.678 7.62-2.509 10.65-5.285 4.62-4.276 7.275-10.445 7.275-16.914 0-1.689-.18-3.377-.54-5.018v-.031c-.015-.032-.015-.08-.03-.11a.723.723 0 01.39-.916c.36-.142.75.063.885.426.015.032.045.142.06.221 0 .032.015.063.015.095.375 1.735.57 3.534.57 5.333 0 6.879-2.82 13.442-7.74 18.002-3.225 2.966-7.14 4.907-11.325 5.633-1.155.19-2.4.3-3.675.3z"/><path d="M71.385 84.506a.628.628 0 01-.495-.237.732.732 0 01.045-1.01c.075-.063.135-.126.21-.189.54-.489 1.02-.994 1.485-1.514a22.588 22.588 0 002.085-2.73 23.233 23.233 0 002.535-5.238c.06-.158.165-.3.3-.379l21.66-12.953a.668.668 0 01.93.268c.18.347.075.789-.255.978L78.45 74.33a24.689 24.689 0 01-2.595 5.318 24.236 24.236 0 01-3.78 4.496l-.21.19a.816.816 0 01-.48.173zm-7.635.079a.485.485 0 01-.33-.126c-.015-.016-.135-.127-.15-.142a25.073 25.073 0 01-1.815-1.815 26.37 26.37 0 01-2.145-2.777 23.957 23.957 0 01-2.64-5.38L35.205 61.502c-.33-.19-.435-.631-.255-.978s.6-.474.93-.268l21.675 12.969c.15.079.255.22.3.379.63 1.877 1.5 3.66 2.565 5.285.63.947 1.305 1.83 2.01 2.62a21.37 21.37 0 001.68 1.688c.285.252.39.757.165 1.057-.135.22-.33.33-.525.33zm-53.73 34.632a.357.357 0 01-.285-.158c-.105-.173-.06-.394.105-.489l43.59-29.788a.317.317 0 01.465.11c.105.174.06.395-.105.49L10.2 119.17a.348.348 0 01-.18.047zm57.6-54.591c-.195 0-.345-.158-.345-.363V8.583c0-.205.15-.363.345-.363.195 0 .345.158.345.363v55.68c0 .205-.15.363-.345.363zm57.6 54.591c-.06 0-.135-.016-.18-.063L81.435 89.35a.356.356 0 01-.105-.49.331.331 0 01.465-.11l43.605 29.82c.165.111.21.332.105.489-.06.111-.165.158-.285.158z"/></g></svg>