<svg width="209" height="47" fill="none" xmlns="http://www.w3.org/2000/svg"><g clip-path="url(#clip0_774_881)"><path d="M175.024 5.534l-4.558 18.092.115.053c.432-.576.823-1.164 1.292-1.72 2.078-2.555 4.579-4.503 7.931-5.115 5.114-.937 10.643 1.014 12.029 7.768 1.502 7.302-2.233 16.068-8.581 20.108-3.135 1.996-6.549 2.763-10.215 1.874-3.225-.778-5.043-3.001-5.825-6.084-.284-1.116-.366-2.284-.547-3.452-.082.093-.202.202-.3.332-2.057 2.763-4.135 5.505-6.138 8.3-.473.657-.967.953-1.753.836-.193-.029-.411 0-.67-.033l1.003-4.056 9.051-36.148c.144-.58.337-.811 1.004-.811 2.02.093 4.044.056 6.162.056zM185 26.628c-.066-.726-.094-1.428-.201-2.121-.65-4.256-4.46-6.308-8.454-4.556-1.765.77-3.077 2.073-4.192 3.582a22.575 22.575 0 00-3.917 9.557c-.386 2.15-.567 4.316 0 6.466 1.074 4.057 4.9 5.68 8.598 3.542a10.249 10.249 0 002.432-1.931c3.76-4.118 5.348-9.103 5.734-14.523v-.016zm-97.6 19.74l2.102-8.28 6.504-25.523c.555-2.167 1.098-4.34 1.67-6.49.053-.2.288-.5.444-.504 2.18-.032 4.365-.024 6.636-.024-1.551 6.085-3.086 12.088-4.661 18.254.736-.981 1.324-1.854 1.999-2.657 3.291-3.947 8.392-5.48 13.111-3.987 3.155.997 5.085 3.423 5.418 6.746.226 2.255-.288 4.405-.848 6.555a3623.319 3623.319 0 00-4.019 15.476c-.033.125-.082.247-.136.405h-6.853c.247-.99.485-1.951.728-2.912 1.32-5.193 2.653-10.377 3.945-15.573a9.13 9.13 0 00.037-4.694 4.576 4.576 0 00-1.588-2.5 4.69 4.69 0 00-2.806-1.029c-3.077-.227-5.348 1.18-7.207 3.432-1.995 2.434-2.966 5.314-3.702 8.3a1318.613 1318.613 0 01-3.703 14.485c-.05.2-.288.5-.444.5-2.172.028-4.353.02-6.628.02zm61.337.162c-.662-2.986-1.317-5.91-2.012-9.034-.185.361-.3.572-.411.787-1.769 3.537-4.205 6.438-8.063 7.857-3.077 1.132-6.212 1.217-9.24-.17-3.028-1.387-4.2-3.898-4.357-7.01-.106-2.093.474-4.084.984-6.084l3.842-15.058c.078-.317.107-.625.597-.617 2.056.024 4.113 0 6.17 0 .115.012.23.032.342.061-.272 1.059-.535 2.09-.802 3.12-1.296 5.038-2.625 10.068-3.863 15.118a12.633 12.633 0 00-.301 3.521c.132 3.197 2.51 5.172 5.76 4.917 2.559-.199 4.467-1.513 6.026-3.4 1.979-2.385 2.987-5.2 3.703-8.153 1.201-4.9 2.468-9.789 3.702-14.68.079-.31.144-.52.539-.516h6.171c.104.013.205.037.304.069-.329 1.339-.645 2.653-.974 3.967a39118.94 39118.94 0 01-6.056 24.279c-.309 1.217-.066.965-1.279.998l-.782.028zM36.17 7.254c-3.445 0-5.166.88-5.163 2.637V40.47c0 1.758 1.72 2.636 5.163 2.633v3.245H16.917v-3.245c3.48 0 5.22-.878 5.22-2.633V9.891c0-1.755-1.74-2.634-5.22-2.637V3.88H36.17v3.375zM65.246 3.88a39.275 39.275 0 016.792.543 14.17 14.17 0 015.258 1.947 9.372 9.372 0 013.369 3.801c.792 1.604 1.19 3.643 1.193 6.117.003 2.475-.395 4.57-1.193 6.288a10 10 0 01-3.374 4.032 13.98 13.98 0 01-5.257 2.142 33.81 33.81 0 01-6.8.633h-8.948V40.46c0 1.76 2.146 2.64 6.438 2.64v3.246h-20.47v-3.245c3.44 0 5.16-.878 5.163-2.633V9.891c0-1.755-1.721-2.634-5.163-2.637V3.88h22.992zm-8.96 4.806v16.007h7.944c3.132 0 5.374-.707 6.726-2.121 1.352-1.415 2.028-3.5 2.028-6.255 0-2.41-.676-4.285-2.028-5.627-1.352-1.341-3.594-2.01-6.726-2.004h-7.944z" fill="#fff"/><path d="M198.981 8.895c.309.286.666.515 1.055.679.66.252 1.376.325 2.074.212a4.691 4.691 0 001.061-.254 16.162 16.162 0 01-4.375 7.273 11.178 11.178 0 005.932-2.16c2.371-1.782 4.626-5.074 4.225-8.633-.067-.58-.443-3.372-2.46-4.866-1.306-.97-2.872-1.325-4.699-1.062-1.504.215-2.663.818-3.485 1.795-.822.977-1.125 2.22-.908 3.714.208 1.427.735 2.528 1.58 3.302zm-188.962 0c-.31.286-.666.515-1.055.679a4.018 4.018 0 01-2.074.212 4.678 4.678 0 01-1.06-.254 16.162 16.162 0 004.374 7.273 11.181 11.181 0 01-5.932-2.16C1.902 12.863-.354 9.571.047 6.012c.067-.58.443-3.372 2.46-4.866C3.813.176 5.379-.179 7.206.084 8.71.299 9.869.902 10.69 1.879c.822.977 1.125 2.22.908 3.714-.208 1.427-.735 2.528-1.58 3.302z" fill="#DA4533"/></g><defs><clipPath id="clip0_774_881"><path fill="#fff" d="M0 0h209v47H0z"/></clipPath></defs></svg>